<svg enable-background="new 0 0 52 52" id="Layer_1" version="1.1" viewBox="0 0 52 52" xml:space="preserve" xmlns="http://www.w3.org/2000/svg" xmlns:xlink="http://www.w3.org/1999/xlink">
  <g>
    <g>
      <g>
        <path d="M12.0962381,49.9233398c-0.3056641,0-0.6123047-0.015625-0.9179688-0.0463867 C8.67241,49.6225586,6.375535,48.3129883,4.7114725,46.1904297c-2.1835938-2.7866211-3.1132813-6.6762695-2.5507813-10.6723633 c0.9853516-7.0014648,6.2675781-12.0834961,12.5605469-12.0834961c0.7246094,0,1.2880869,0.5092773,1.8857431,1.0488281 c0.46875,0.4238281,1.0517578,0.9511719,1.4609375,0.9511719h15.8583965c0.4150391,0,1.0019531-0.5297852,1.4736328-0.9550781 c0.5947266-0.5375977,1.1572266-1.0449219,1.8789063-1.0449219c6.2919922,0,11.5742188,5.0820313,12.5605469,12.0834961 v0.0004883c0.5625,3.9960938-0.3681641,7.8867188-2.5517578,10.6728516 c-1.6640625,2.1220703-3.9599609,3.4311523-6.4658203,3.6855469c-3.8974609,0.3935547-7.8134766-1.7680664-10.3124981-5.6772461 h-9.0195313C19.1870594,47.8022461,15.6890116,49.9233398,12.0962381,49.9233398z M14.625535,25.4350586 C9.3823709,25.4873047,4.9810038,29.8291016,4.14116,35.796875c-0.4873047,3.4604492,0.2939453,6.7988281,2.1445313,9.159668 c1.3447266,1.715332,3.1064453,2.7285156,5.09375,2.9301758c3.2773438,0.3334961,6.6103525-1.6572266,8.6884775-5.1933594 l0.2900391-0.4936523H31.641161L31.9312,42.6933594c2.0781231,3.5366211,5.4121075,5.534668,8.6894512,5.1933594 c1.9873047-0.2016602,3.7480469-1.2143555,5.0927734-2.9291992c1.8505859-2.3608398,2.6328125-5.699707,2.1455078-9.1606445 c-0.8408203-5.9677734-5.2412109-10.309082-10.4833984-10.3618164c-0.1474609,0.0883789-0.4375,0.3500977-0.6357422,0.5288086 c-0.6875,0.6206055-1.6289063,1.4707031-2.8134766,1.4707031H18.0679188c-1.1787109,0-2.0791025-0.8134766-2.8027353-1.4672852 C15.0659647,25.7871094,14.7739725,25.5234375,14.625535,25.4350586z M14.5845194,25.4135742L14.5845194,25.4135742 L14.5845194,25.4135742z" fill="white"/>
      </g>
      <g>
        <g>
          <rect height="3.0053711" width="2" x="35.9995575" y="29.6669922" fill="white"/>
        </g>
      </g>
      <g>
        <g>
          <rect height="3.0053711" width="2" x="35.9995575" y="40.6855469" fill="white"/>
        </g>
      </g>
      <g>
        <g>
          <rect height="2" width="3" x="40.9995575" y="35.6791992" fill="white"/>
        </g>
      </g>
      <g>
        <g>
          <rect height="2" width="3" x="29.9995594" y="35.6791992" fill="white"/>
        </g>
      </g>
      <g>
        <g>
          <rect height="10.0170898" width="2" x="12.9995584" y="31.6704102" fill="white"/>
        </g>
      </g>
      <g>
        <g>
          <rect height="2" width="10" x="8.9995584" y="35.6791992" fill="white"/>
        </g>
      </g>
      <g>
        <path d="M26.8823719,26.9047852l-1.765625-0.9404297c2.0429688-3.8344727,0.8896484-8.5917969-2.6806641-11.065918 l-0.1572266-0.1083984c-2.0976563-1.4541016-3.0097656-4.1625977-2.2167969-6.5878906 c0.5488281-1.6826172-0.1083984-3.4990234-1.5947266-4.4321289l1.0644531-1.6933594 c2.2636719,1.421875,3.265625,4.1899414,2.4355469,6.730957c-0.5244141,1.6069336,0.0732422,3.3842773,1.4492188,4.3378906 l0.1572266,0.1083984C27.9800282,16.3066406,29.4019032,22.1748047,26.8823719,26.9047852z" fill="white"/>
        </g>
      </g>
    </g>
  
</svg>
