<svg data-name="Layer 1" viewBox="0 0 48 48" xmlns="http://www.w3.org/2000/svg"><path d="M42 5H1" stroke-linecap="round" stroke-linejoin="round" fill="none" stroke="#ffffff" stroke-width="2px" class="stroke-353535"></path><path d="M18.101 18.062h4M16.101 18.062h-7M4.101 22.062H10M12 22.062h6" stroke-miterlimit="10" fill="none" stroke="#ffffff" stroke-width="2px" class="stroke-353535"></path><path d="m26.263 27.263-2.5 3 2.5 3M35.763 27.263l2.5 3-2.5 3M30.013 33.263l2-6" stroke-linecap="round" stroke-linejoin="round" fill="none" stroke="#ffffff" stroke-width="2px" class="stroke-353535"></path><circle cx="30.763" cy="30.263" r="11.5" stroke-miterlimit="10" fill="none" stroke="#ffffff" stroke-width="2px" class="stroke-353535"></circle><path d="M18.101 18.062h4M16.101 18.062h-7M4.101 22.062H10M12 22.062h6M4.101 30h3M9.101 30H16M16.101 34h-7M4.101 38H7M9 38h9M9 26h7M16.101 42h-7M4.101 10h3M9.101 10H28M4.101 10h3M9.101 10H28M18.101 14H32M16.101 14h-7M18.101 14H32M16.101 14h-7" stroke-miterlimit="10" fill="none" stroke="#ffffff" stroke-width="2px" class="stroke-353535"></path><path d="M42 20V1H1v46h35" stroke-linecap="round" stroke-linejoin="round" fill="none" stroke="#ffffff" stroke-width="2px" class="stroke-353535"></path></svg>